<svg width="16" height="16" viewBox="0 0 16 16" fill="none" xmlns="http://www.w3.org/2000/svg">
<path d="M13.3327 14.6667H4.33268C3.41221 14.6667 2.66602 13.9205 2.66602 13M2.66602 13V7.12239C2.66602 5.13267 2.66602 4.1378 3.17043 3.43897C3.33746 3.20755 3.54057 3.00445 3.77198 2.83741C4.47082 2.33299 5.4657 2.33299 7.45542 2.33299C8.10635 2.33299 8.89908 2.36729 9.55655 2.37619C10.156 2.38429 10.4557 2.38835 11.0141 2.28968C11.5725 2.19101 11.6321 2.16832 11.7515 2.12295C12.2648 1.92776 12.7508 1.62419 13.3327 1.33325V7.66665C13.3327 8.90919 13.3327 9.53045 13.1297 10.0205C12.859 10.6739 12.3399 11.1931 11.6865 11.4637C11.1964 11.6667 10.5752 11.6667 9.33268 11.6667H3.99935C3.26297 11.6667 2.66602 12.2637 2.66602 13Z" stroke="black" stroke-width="1.25" stroke-linecap="round" stroke-linejoin="round"/>
<path d="M5.95898 2.66675C5.95898 2.32157 5.67916 2.04175 5.33398 2.04175C4.98881 2.04175 4.70898 2.32157 4.70898 2.66675H5.95898ZM4.70898 5.33341C4.70898 5.67859 4.98881 5.95841 5.33398 5.95841C5.67916 5.95841 5.95898 5.67859 5.95898 5.33341H4.70898ZM12.0007 11.3334H11.3757V14.6667H12.0007H12.6257V11.3334H12.0007ZM5.33398 2.66675H4.70898V5.33341H5.33398H5.95898V2.66675H5.33398Z" fill="black"/>
</svg>
