<svg width="16" height="16" viewBox="0 0 16 16" fill="none" xmlns="http://www.w3.org/2000/svg">
<path d="M8.66732 14H8.00065C4.85795 14 3.2866 14 2.3103 13.0237C1.33398 12.0474 1.33398 10.476 1.33398 7.33333V5.29618C1.33398 4.0852 1.33398 3.47971 1.58753 3.02537C1.76826 2.70151 2.0355 2.43428 2.35936 2.25355C2.81369 2 3.41918 2 4.63016 2C5.406 2 5.79392 2 6.13349 2.12734C6.90878 2.41808 7.22852 3.12239 7.57838 3.82209L8.00065 4.66667M5.33398 4.66667H11.1673C12.5718 4.66667 13.274 4.66667 13.7785 5.00373C13.9969 5.14965 14.1843 5.33715 14.3303 5.55553C14.6537 6.03961 14.6668 6.70587 14.6673 8" stroke="black" stroke-width="1.25" stroke-linecap="round"/>
<path d="M14 10.3077V11.9488C14 13.0817 13.1046 14.0001 12 14.0001C10.8954 14.0001 10 13.0817 10 11.9488V9.69241C10 9.12595 10.4477 8.66675 11 8.66675C11.5523 8.66675 12 9.12595 12 9.69241V11.9488" stroke="black" stroke-width="1.25" stroke-linecap="round" stroke-linejoin="round"/>
</svg>
