<svg width="125" height="16" viewBox="0 0 125 16" fill="none" xmlns="http://www.w3.org/2000/svg">
<path d="M3.79096 4.30682L8.2128 0H13.6882L5.68573 8L13.6882 16H8.2128L3.79096 11.6925V16H0V0H3.79096V4.30682Z" fill="#F0592D"/>
<path d="M13.2676 8L21.2701 16H15.7947L7.58121 8L15.7947 0H21.2701L13.2676 8Z" fill="#F0592D"/>
<path d="M15.1624 8L23.3752 0H28.8506L20.8481 8L28.8506 16H23.3752L15.1624 8Z" fill="#F0592D"/>
<path d="M33.2156 14.5018V1.49818H35.5902V8.27055L34.9441 8.04364L40.479 1.49818H43.4646L38.279 7.64218L38.4187 5.96655L43.6218 14.5018H40.8282L37.3362 8.77673L35.5902 10.8538V14.5018H33.2156Z" fill="black"/>
<path d="M48.9246 14.7113C48.2145 14.7113 47.5394 14.5833 46.8992 14.3273C46.2706 14.0596 45.7294 13.6873 45.2754 13.2102C44.8331 12.7215 44.5305 12.1455 44.3675 11.4822L46.4452 10.7491C46.6548 11.3425 46.9749 11.7964 47.4055 12.1105C47.8362 12.4131 48.3426 12.5644 48.9246 12.5644C49.3902 12.5644 49.7917 12.4771 50.1293 12.3025C50.4785 12.128 50.752 11.8778 50.9499 11.552C51.1478 11.2145 51.2467 10.8189 51.2467 10.3651C51.2467 9.91127 51.1478 9.52727 50.9499 9.21309C50.7637 8.88727 50.496 8.63709 50.1468 8.46255C49.7976 8.288 49.3843 8.20073 48.9071 8.20073C48.6859 8.20073 48.4531 8.224 48.2087 8.27055C47.9759 8.31709 47.7664 8.38691 47.5801 8.48L47.0389 7.34545L50.4087 3.50545H45.1008V1.49818H53.08V3.36582L49.6928 7.328L49.7277 6.43782C50.5076 6.44945 51.1885 6.61818 51.7705 6.944C52.3525 7.26982 52.8065 7.71782 53.1324 8.288C53.4583 8.85818 53.6213 9.52727 53.6213 10.2953C53.6213 11.1331 53.4176 11.8895 53.0102 12.5644C52.6028 13.2276 52.0441 13.7513 51.334 14.1353C50.624 14.5193 49.8208 14.7113 48.9246 14.7113Z" fill="black"/>
<path d="M63.4873 14.7113C62.6609 14.7113 61.8926 14.56 61.1826 14.2575C60.4842 13.9549 59.8789 13.536 59.3667 13.0007C58.8662 12.4538 58.4996 11.8196 58.2668 11.0982L60.2397 10.2429C60.554 10.9876 61.008 11.5753 61.6016 12.0058C62.1953 12.4247 62.8646 12.6342 63.6095 12.6342C64.0286 12.6342 64.3894 12.5702 64.692 12.4422C65.0063 12.3025 65.2449 12.1164 65.4079 11.8836C65.5825 11.6509 65.6698 11.3716 65.6698 11.0458C65.6698 10.6618 65.5534 10.3476 65.3206 10.1033C65.0994 9.84727 64.7619 9.64946 64.3079 9.50982L61.8111 8.70691C60.7985 8.39273 60.036 7.92145 59.5239 7.29309C59.0117 6.66473 58.7556 5.92582 58.7556 5.07636C58.7556 4.33164 58.9361 3.67418 59.2969 3.104C59.6694 2.53382 60.1815 2.09164 60.8334 1.77745C61.4969 1.45164 62.2535 1.28873 63.1032 1.28873C63.8831 1.28873 64.5989 1.42836 65.2508 1.70764C65.9026 1.97527 66.4613 2.35345 66.9269 2.84218C67.4042 3.31927 67.7592 3.88364 67.992 4.53527L66.0365 5.408C65.7804 4.75636 65.3963 4.256 64.8841 3.90691C64.3719 3.54618 63.7783 3.36582 63.1032 3.36582C62.7074 3.36582 62.3582 3.43564 62.0556 3.57527C61.7529 3.70327 61.5143 3.88945 61.3397 4.13382C61.1768 4.36655 61.0953 4.64582 61.0953 4.97164C61.0953 5.33236 61.2117 5.65236 61.4445 5.93164C61.6773 6.19927 62.0323 6.40873 62.5095 6.56L64.9016 7.31054C65.9375 7.648 66.7116 8.11345 67.2237 8.70691C67.7475 9.30036 68.0094 10.0335 68.0094 10.9062C68.0094 11.6509 67.8174 12.3084 67.4333 12.8785C67.0491 13.4487 66.5195 13.8967 65.8444 14.2225C65.1693 14.5484 64.3836 14.7113 63.4873 14.7113Z" fill="black"/>
<path d="M73.0728 14.5018V8.74182L68.6904 1.49818H71.3967L74.749 7.15345H73.7887L77.1236 1.49818H79.8299L75.4649 8.72436V14.5018H73.0728Z" fill="black"/>
<path d="M85.3976 14.7113C84.5711 14.7113 83.8029 14.56 83.0928 14.2575C82.3944 13.9549 81.7892 13.536 81.277 13.0007C80.7765 12.4538 80.4098 11.8196 80.177 11.0982L82.15 10.2429C82.4643 10.9876 82.9182 11.5753 83.5119 12.0058C84.1055 12.4247 84.7748 12.6342 85.5198 12.6342C85.9388 12.6342 86.2997 12.5702 86.6023 12.4422C86.9166 12.3025 87.1552 12.1164 87.3182 11.8836C87.4928 11.6509 87.5801 11.3716 87.5801 11.0458C87.5801 10.6618 87.4637 10.3476 87.2309 10.1033C87.0097 9.84727 86.6721 9.64946 86.2182 9.50982L83.7214 8.70691C82.7087 8.39273 81.9463 7.92145 81.4341 7.29309C80.922 6.66473 80.6659 5.92582 80.6659 5.07636C80.6659 4.33164 80.8463 3.67418 81.2072 3.104C81.5796 2.53382 82.0918 2.09164 82.7436 1.77745C83.4071 1.45164 84.1637 1.28873 85.0134 1.28873C85.7933 1.28873 86.5092 1.42836 87.161 1.70764C87.8129 1.97527 88.3716 2.35345 88.8372 2.84218C89.3144 3.31927 89.6694 3.88364 89.9023 4.53527L87.9467 5.408C87.6906 4.75636 87.3065 4.256 86.7944 3.90691C86.2822 3.54618 85.6886 3.36582 85.0134 3.36582C84.6177 3.36582 84.2685 3.43564 83.9658 3.57527C83.6632 3.70327 83.4246 3.88945 83.25 4.13382C83.087 4.36655 83.0055 4.64582 83.0055 4.97164C83.0055 5.33236 83.1219 5.65236 83.3547 5.93164C83.5875 6.19927 83.9426 6.40873 84.4198 6.56L86.8118 7.31054C87.8478 7.648 88.6218 8.11345 89.134 8.70691C89.6578 9.30036 89.9197 10.0335 89.9197 10.9062C89.9197 11.6509 89.7276 12.3084 89.3435 12.8785C88.9594 13.4487 88.4298 13.8967 87.7547 14.2225C87.0795 14.5484 86.2938 14.7113 85.3976 14.7113Z" fill="black"/>
<path d="M94.3626 14.5018V3.59273H90.9928V1.49818H100.072V3.59273H96.7546V14.5018H94.3626Z" fill="black"/>
<path d="M101.521 14.5018V1.49818H110.164V3.59273H103.896V6.92655H109.815V9.02109H103.896V12.4073H110.164V14.5018H101.521Z" fill="black"/>
<path d="M111.905 14.5018V1.49818H114.175L119.046 8.11345H117.964L122.73 1.49818H125V14.5018H122.608V4.20364L123.533 4.43055L118.592 11.0109H118.313L113.494 4.43055L114.28 4.20364V14.5018H111.905Z" fill="black"/>
</svg>
