<svg width="16" height="16" viewBox="0 0 16 16" fill="none" xmlns="http://www.w3.org/2000/svg">
<path d="M8.33398 2H7.66732C4.68176 2 3.18898 2 2.26148 2.92749C1.33398 3.85499 1.33398 5.34777 1.33398 8.33333C1.33398 11.3189 1.33398 12.8117 2.26148 13.7392C3.18898 14.6667 4.68176 14.6667 7.66732 14.6667C10.6529 14.6667 12.1457 14.6667 13.0732 13.7392C14.0007 12.8117 14.0007 11.3189 14.0007 8.33333V7.66667" stroke="black" stroke-width="1.25" stroke-linecap="round"/>
<path d="M4.66602 7.33325H7.33268M4.66602 10.6666H9.99935M14.666 3.66659C14.666 4.95525 13.6213 5.99992 12.3327 5.99992C11.044 5.99992 9.99935 4.95525 9.99935 3.66659C9.99935 2.37792 11.044 1.33325 12.3327 1.33325C13.6213 1.33325 14.666 2.37792 14.666 3.66659Z" stroke="black" stroke-width="1.25" stroke-linecap="round"/>
</svg>
