<svg width="16" height="16" viewBox="0 0 16 16" fill="none" xmlns="http://www.w3.org/2000/svg">
<path d="M2 7.33325C2 4.83343 2 3.58352 2.63661 2.7073C2.84221 2.42432 3.09107 2.17546 3.37405 1.96986C4.25027 1.33325 5.50018 1.33325 8 1.33325C10.4998 1.33325 11.7497 1.33325 12.6259 1.96986C12.9089 2.17546 13.1578 2.42432 13.3634 2.7073C14 3.58352 14 4.83343 14 7.33325V8.66658C14 11.1664 14 12.4163 13.3634 13.2925C13.1578 13.5755 12.9089 13.8244 12.6259 14.03C11.7497 14.6666 10.4998 14.6666 8 14.6666C5.50018 14.6666 4.25027 14.6666 3.37405 14.03C3.09107 13.8244 2.84221 13.5755 2.63661 13.2925C2 12.4163 2 11.1664 2 8.66658V7.33325Z" stroke="black" stroke-width="1.25"/>
<path d="M10.0007 8.66675L9.42925 7.33341M9.42925 7.33341L8.39558 4.92165C8.32952 4.76736 8.17358 4.66675 8.00065 4.66675C7.82772 4.66675 7.67179 4.76736 7.60572 4.92165L6.57208 7.33341M9.42925 7.33341H6.57208M6.00065 8.66675L6.57208 7.33341M5.33398 11.3334H10.6673" stroke="black" stroke-width="1.25" stroke-linecap="round" stroke-linejoin="round"/>
</svg>
