<svg width="16" height="16" viewBox="0 0 16 16" fill="none" xmlns="http://www.w3.org/2000/svg">
<path d="M13.8611 6.10134C14.3986 7.02787 14.6673 7.49107 14.6673 8C14.6673 8.50893 14.3986 8.97213 13.8611 9.89867L12.5786 12.1092C12.0432 13.032 11.7755 13.4935 11.3353 13.7467C10.8951 14 10.3608 14 9.29218 14H6.70912C5.64053 14 5.10625 14 4.66603 13.7467C4.22581 13.4935 3.95811 13.032 3.42272 12.1092L2.14026 9.89867C1.60274 8.97213 1.33398 8.50893 1.33398 8C1.33398 7.49107 1.60274 7.02787 2.14026 6.10133L3.42272 3.89081C3.95811 2.96797 4.22581 2.50656 4.66603 2.25328C5.10625 2 5.64053 2 6.70912 2H9.29218C10.3608 2 10.8951 2 11.3353 2.25328C11.7755 2.50656 12.0432 2.96798 12.5786 3.89081L13.8611 6.10134Z" stroke="black" stroke-width="1.25"/>
<path d="M6 5.33325L10 10.6666" stroke="black" stroke-width="1.25" stroke-linecap="round"/>
</svg>
