<svg width="16" height="16" viewBox="0 0 16 16" fill="none" xmlns="http://www.w3.org/2000/svg">
<path d="M6 8.66667C6 8.66667 6.66667 8.66667 7.33333 10C7.33333 10 9.451 6.66667 11.3333 6" stroke="black" stroke-width="1.25" stroke-linecap="round" stroke-linejoin="round"/>
<path d="M14 7.45545V5.52011C14 4.42678 14 3.8801 13.7306 3.52344C13.4612 3.16678 12.8521 2.99363 11.6338 2.64732C10.8015 2.41072 10.0677 2.12567 9.48153 1.86545C8.68227 1.51065 8.28267 1.33325 8 1.33325C7.71733 1.33325 7.31773 1.51065 6.51847 1.86545C5.93226 2.12567 5.19856 2.41071 4.36622 2.64732C3.14795 2.99363 2.53881 3.16678 2.26941 3.52344C2 3.8801 2 4.42678 2 5.52011V7.45545C2 11.2056 5.37518 13.4556 7.06267 14.3462C7.4674 14.5598 7.66973 14.6666 8 14.6666C8.33027 14.6666 8.5326 14.5598 8.93733 14.3462C10.6248 13.4556 14 11.2056 14 7.45545Z" stroke="black" stroke-width="1.25" stroke-linecap="round"/>
</svg>
