<svg width="16" height="16" viewBox="0 0 16 16" fill="none" xmlns="http://www.w3.org/2000/svg">
<path d="M14.6673 7.99992C14.6673 11.6818 11.6825 14.6666 8.00065 14.6666C4.31875 14.6666 1.33398 11.6818 1.33398 7.99992C1.33398 4.31802 4.31875 1.33325 8.00065 1.33325C11.6825 1.33325 14.6673 4.31802 14.6673 7.99992Z" stroke="black" stroke-width="1.25"/>
<path d="M3.12336 12.3566C2.95211 12.6563 3.05623 13.0381 3.35593 13.2093C3.65563 13.3806 4.03741 13.2765 4.20867 12.9768L3.12336 12.3566ZM4.03962 12.0129L3.49697 11.7028L3.49696 11.7028L4.03962 12.0129ZM11.9591 12.0129L12.5017 11.7028L12.5017 11.7028L11.9591 12.0129ZM11.79 12.9768C11.9613 13.2765 12.343 13.3806 12.6427 13.2093C12.9424 13.0381 13.0466 12.6563 12.8753 12.3566L11.79 12.9768ZM9.83268 6.33333H9.20768C9.20768 7.00069 8.6667 7.54167 7.99935 7.54167V8.16667V8.79167C9.35706 8.79167 10.4577 7.69104 10.4577 6.33333H9.83268ZM7.99935 8.16667V7.54167C7.33199 7.54167 6.79102 7.00069 6.79102 6.33333H6.16602H5.54102C5.54102 7.69104 6.64164 8.79167 7.99935 8.79167V8.16667ZM6.16602 6.33333H6.79102C6.79102 5.66599 7.332 5.125 7.99935 5.125V4.5V3.875C6.64163 3.875 5.54102 4.97564 5.54102 6.33333H6.16602ZM7.99935 4.5V5.125C8.6667 5.125 9.20768 5.66599 9.20768 6.33333H9.83268H10.4577C10.4577 4.97564 9.35706 3.875 7.99935 3.875V4.5ZM3.66602 12.6667L4.20867 12.9768L4.58227 12.323L4.03962 12.0129L3.49696 11.7028L3.12336 12.3566L3.66602 12.6667ZM4.03962 12.0129L4.58226 12.323C5.06446 11.4791 5.96186 10.9583 6.93379 10.9583V10.3333V9.70833C5.51327 9.70833 4.20171 10.4695 3.49697 11.7028L4.03962 12.0129ZM6.93379 10.3333V10.9583H9.06492V10.3333V9.70833H6.93379V10.3333ZM9.06492 10.3333V10.9583C10.0368 10.9583 10.9342 11.4791 11.4164 12.323L11.9591 12.0129L12.5017 11.7028C11.797 10.4695 10.4854 9.70833 9.06492 9.70833V10.3333ZM11.9591 12.0129L11.4164 12.323L11.79 12.9768L12.3327 12.6667L12.8753 12.3566L12.5017 11.7028L11.9591 12.0129Z" fill="black"/>
</svg>
